<svg width="240" height="59" viewBox="0 0 240 59" fill="none" xmlns="http://www.w3.org/2000/svg">
<path d="M95.4071 44.8308V15.4454H115.252V21.0002H102.022V26.767H113.768V32.1946H102.022V39.276H116.227V44.8308H95.4071Z" fill="#322153"/>
<path d="M119.141 33.6787C119.141 32.0674 119.396 30.555 119.905 29.1416C120.442 27.6999 121.205 26.4561 122.194 25.4101C123.184 24.3359 124.385 23.4878 125.799 22.8659C127.212 22.244 128.823 21.9331 130.633 21.9331C131.82 21.9331 132.908 22.0461 133.898 22.2723C134.887 22.4702 135.848 22.767 136.781 23.1627L135.467 28.2087C134.873 27.9826 134.223 27.7847 133.516 27.6151C132.809 27.4455 132.018 27.3607 131.141 27.3607C129.276 27.3607 127.876 27.9402 126.943 29.0992C126.039 30.2582 125.587 31.7847 125.587 33.6787C125.587 35.6858 126.011 37.2406 126.859 38.3431C127.735 39.4456 129.247 39.9968 131.396 39.9968C132.159 39.9968 132.979 39.9261 133.855 39.7848C134.732 39.6434 135.537 39.4173 136.272 39.1063L137.163 44.2795C136.428 44.5905 135.509 44.859 134.406 45.0852C133.304 45.3113 132.088 45.4244 130.76 45.4244C128.724 45.4244 126.972 45.1276 125.502 44.5339C124.032 43.912 122.816 43.0781 121.855 42.0322C120.922 40.9862 120.23 39.7565 119.777 38.3431C119.353 36.9014 119.141 35.3466 119.141 33.6787Z" fill="#322153"/>
<path d="M161.189 33.6363C161.189 35.389 160.934 37.0003 160.425 38.4703C159.917 39.912 159.182 41.1558 158.22 42.2018C157.259 43.2195 156.1 44.011 154.743 44.5764C153.415 45.1417 151.917 45.4244 150.249 45.4244C148.609 45.4244 147.111 45.1417 145.754 44.5764C144.425 44.011 143.28 43.2195 142.319 42.2018C141.358 41.1558 140.609 39.912 140.072 38.4703C139.535 37.0003 139.266 35.389 139.266 33.6363C139.266 31.8837 139.535 30.2865 140.072 28.8448C140.637 27.4031 141.401 26.1734 142.362 25.1557C143.351 24.138 144.51 23.3465 145.839 22.7811C147.196 22.2157 148.666 21.9331 150.249 21.9331C151.86 21.9331 153.33 22.2157 154.659 22.7811C156.015 23.3465 157.175 24.138 158.136 25.1557C159.097 26.1734 159.846 27.4031 160.383 28.8448C160.92 30.2865 161.189 31.8837 161.189 33.6363ZM154.743 33.6363C154.743 31.6858 154.348 30.1593 153.556 29.0568C152.793 27.926 151.69 27.3607 150.249 27.3607C148.807 27.3607 147.69 27.926 146.899 29.0568C146.107 30.1593 145.712 31.6858 145.712 33.6363C145.712 35.5869 146.107 37.1417 146.899 38.3007C147.69 39.4314 148.807 39.9968 150.249 39.9968C151.69 39.9968 152.793 39.4314 153.556 38.3007C154.348 37.1417 154.743 35.5869 154.743 33.6363Z" fill="#322153"/>
<path d="M174.988 45.2548C173.15 45.2265 171.652 45.0287 170.493 44.6612C169.362 44.2937 168.458 43.7848 167.779 43.1346C167.129 42.4562 166.677 41.6505 166.422 40.7177C166.196 39.7565 166.083 38.6823 166.083 37.495V12.9436L172.401 11.9259V36.2229C172.401 36.7883 172.443 37.2971 172.528 37.7494C172.613 38.2017 172.769 38.5834 172.995 38.8943C173.249 39.2053 173.602 39.4597 174.055 39.6576C174.507 39.8555 175.115 39.9827 175.878 40.0392L174.988 45.2548Z" fill="#322153"/>
<path d="M178.439 33.8483C178.439 31.8695 178.736 30.1451 179.33 28.6752C179.952 27.1769 180.758 25.9331 181.747 24.9437C182.736 23.9543 183.867 23.2051 185.139 22.6963C186.44 22.1875 187.768 21.9331 189.125 21.9331C192.291 21.9331 194.793 22.9083 196.63 24.8589C198.468 26.7812 199.387 29.6222 199.387 33.3819C199.387 33.7494 199.373 34.1593 199.344 34.6116C199.316 35.0356 199.288 35.4173 199.259 35.7565H184.927C185.069 37.0569 185.676 38.0887 186.751 38.8519C187.825 39.6152 189.266 39.9968 191.076 39.9968C192.235 39.9968 193.365 39.8979 194.468 39.7C195.599 39.4738 196.517 39.2053 197.224 38.8943L198.072 44.0251C197.733 44.1947 197.281 44.3643 196.715 44.5339C196.15 44.7036 195.514 44.8449 194.807 44.958C194.129 45.0993 193.394 45.2124 192.602 45.2972C191.811 45.382 191.019 45.4244 190.228 45.4244C188.22 45.4244 186.468 45.1276 184.97 44.5339C183.5 43.9403 182.27 43.1346 181.281 42.117C180.319 41.071 179.599 39.8413 179.118 38.4279C178.666 37.0145 178.439 35.4879 178.439 33.8483ZM193.281 31.4314C193.252 30.8943 193.153 30.3713 192.984 29.8624C192.842 29.3536 192.602 28.9013 192.263 28.5055C191.952 28.1098 191.542 27.7847 191.033 27.5303C190.553 27.2759 189.945 27.1486 189.21 27.1486C188.503 27.1486 187.895 27.2759 187.387 27.5303C186.878 27.7564 186.454 28.0674 186.114 28.4631C185.775 28.8589 185.507 29.3253 185.309 29.8624C185.139 30.3713 185.012 30.8943 184.927 31.4314H193.281Z" fill="#322153"/>
<path d="M204.05 16.9719L210.368 15.9542V22.5267H217.959V27.7847H210.368V35.6293C210.368 36.9579 210.595 38.018 211.047 38.8095C211.527 39.601 212.474 39.9968 213.888 39.9968C214.566 39.9968 215.259 39.9403 215.966 39.8272C216.701 39.6859 217.365 39.5021 217.959 39.276L218.849 44.1947C218.086 44.5057 217.238 44.7742 216.305 45.0004C215.372 45.2265 214.227 45.3396 212.87 45.3396C211.146 45.3396 209.718 45.1135 208.587 44.6612C207.457 44.1806 206.552 43.5304 205.874 42.7106C205.195 41.8625 204.715 40.8449 204.432 39.6576C204.178 38.4703 204.05 37.1558 204.05 35.7141V16.9719Z" fill="#322153"/>
<path d="M230.798 40.4208C231.42 40.4208 232.014 40.4067 232.579 40.3784C233.145 40.3502 233.597 40.3078 233.936 40.2512V35.4597C233.682 35.4031 233.3 35.3466 232.791 35.2901C232.283 35.2335 231.816 35.2052 231.392 35.2052C230.798 35.2052 230.233 35.2477 229.696 35.3325C229.187 35.389 228.735 35.5162 228.339 35.7141C227.943 35.912 227.632 36.1805 227.406 36.5197C227.18 36.859 227.067 37.283 227.067 37.7918C227.067 38.7813 227.392 39.4738 228.042 39.8696C228.721 40.2371 229.639 40.4208 230.798 40.4208ZM230.29 21.9331C232.155 21.9331 233.71 22.1451 234.954 22.5691C236.198 22.9931 237.187 23.6009 237.922 24.3924C238.685 25.184 239.223 26.1451 239.534 27.2759C239.844 28.4066 240 29.6646 240 31.0497V44.1947C239.095 44.3926 237.837 44.6188 236.226 44.8732C234.615 45.1559 232.664 45.2972 230.374 45.2972C228.933 45.2972 227.618 45.17 226.431 44.9156C225.272 44.6612 224.268 44.2513 223.42 43.6859C222.572 43.0922 221.922 42.329 221.47 41.3961C221.017 40.4632 220.791 39.3184 220.791 37.9615C220.791 36.6611 221.046 35.5586 221.555 34.654C222.092 33.7494 222.798 33.0286 223.675 32.4914C224.551 31.9543 225.555 31.5727 226.685 31.3466C227.816 31.0921 228.989 30.9649 230.205 30.9649C231.025 30.9649 231.745 31.0073 232.367 31.0921C233.018 31.1487 233.541 31.2335 233.936 31.3466V30.7529C233.936 29.6787 233.611 28.8165 232.961 28.1663C232.311 27.5161 231.18 27.191 229.569 27.191C228.495 27.191 227.434 27.2759 226.389 27.4455C225.343 27.5868 224.438 27.7988 223.675 28.0815L222.869 22.9931C223.237 22.8801 223.689 22.767 224.226 22.6539C224.791 22.5126 225.399 22.3995 226.049 22.3147C226.699 22.2016 227.378 22.1168 228.085 22.0603C228.82 21.9755 229.555 21.9331 230.29 21.9331Z" fill="#322153"/>
<path d="M19.402 2.45093L13.3398 14.0276C12.9484 14.775 13.2061 15.7096 13.9196 16.1298L23.412 21.7213C24.1352 22.1473 25.0548 21.8853 25.4661 21.1359L37.0689 0.000854492H23.3748C21.7173 0.000854492 20.1926 0.941051 19.402 2.45093V2.45093Z" fill="#29A361"/>
<path d="M37.0686 0L25.4662 21.1353C25.0541 21.8846 24.1352 22.1472 23.4122 21.7214L20.9346 20.2625C21.5386 20.3634 22.167 20.0756 22.4869 19.492L33.1897 0H37.0686Z" fill="#248F55"/>
<path d="M49.7639 11.2093L45.5826 2.58263C44.8155 0.999885 43.2525 0.000854492 41.5435 0.000854492H29.4542L38.7363 16.3207C38.7059 16.3349 38.6753 16.349 38.6449 16.3632C38.061 16.6356 38.0848 17.5036 38.6826 17.7415L46.6977 20.9313C47.0692 21.0791 47.4858 20.8869 47.6284 20.5021L50.7182 12.1638C50.9467 11.547 50.3468 10.9518 49.7639 11.2093V11.2093Z" fill="#34CB79"/>
<path d="M50.7184 12.1631L47.6278 20.5012C47.4858 20.8872 47.0685 21.0795 46.6974 20.931L44.2722 19.9654L47.1633 12.1631C47.3276 11.7206 47.0651 11.2897 46.6885 11.1767C46.3298 11.0689 46.0236 10.8255 45.856 10.4797L42.0275 2.58229C41.2609 1.00006 39.6984 0 37.9886 0H41.5438C43.2523 0 44.8149 1.00006 45.5827 2.58229L49.7637 11.2096C50.3474 10.9523 50.9463 11.5464 50.7184 12.1631Z" fill="#2FB86E"/>
<path d="M41.6868 44.4693C41.5743 43.9904 40.978 43.7852 40.614 44.1623L34.3496 50.6543C34.0996 50.9134 34.0996 51.3332 34.3496 51.5921L40.6382 58.1091C40.9996 58.4836 41.5898 58.2836 41.7086 57.8128H50.9565C52.659 57.8128 54.2172 56.8214 54.9876 55.2479L60.2644 44.4692H41.6868V44.4693Z" fill="#29A361"/>
<path d="M49.4937 44.4695L52.4923 49.1716C53.1702 50.2346 53.2452 51.5931 52.6888 52.7294L51.4555 55.2481C50.6864 56.821 49.1276 57.8131 47.4255 57.8131H50.9565C52.6585 57.8131 54.2173 56.821 54.9878 55.2481L60.2642 44.4696H49.4937V44.4695Z" fill="#248F55"/>
<path d="M29.0664 56.5737V45.1006C29.0664 44.2383 28.3918 43.5391 27.5596 43.5391H2.73999L9.1273 55.6915C9.91901 57.1977 11.4417 58.1351 13.0968 58.1351H27.5596C28.3917 58.1352 29.0664 57.4362 29.0664 56.5737Z" fill="#29A361"/>
<path d="M13.2661 43.54L7.75409 53.0799L2.73999 43.54H13.2661Z" fill="#248F55"/>
<path d="M29.0661 45.1009V56.5744C29.0661 57.4365 28.3917 58.1354 27.5599 58.1354H23.6067C24.4385 58.1354 25.113 57.4365 25.113 56.5744V45.1009C25.113 44.2389 24.4385 43.5399 23.6067 43.5399H27.5599C28.3917 43.5398 29.0661 44.2389 29.0661 45.1009Z" fill="#248F55"/>
<path d="M16.941 33.4012L15.8264 24.7087C15.7714 24.2792 15.3907 23.9775 14.9764 24.0345L6.55637 25.1939C5.92231 25.2812 5.68603 26.0806 6.12033 26.5253L0.806352 34.4628C-0.167969 35.9181 -0.266854 37.8183 0.550691 39.3738L6.33338 50.3758L15.7228 34.1221C15.7261 34.1247 15.7294 34.1274 15.7327 34.13C16.2687 34.5515 17.0295 34.0924 16.941 33.4012Z" fill="#34CB79"/>
<path d="M15.7322 34.13C15.7296 34.1273 15.7259 34.1247 15.7232 34.122L6.33347 50.3753L4.40234 46.7015L12.0449 33.4701L12.2568 33.103C12.3727 32.9024 12.5992 32.8158 12.8207 32.8603C12.8218 32.8606 12.8229 32.8607 12.824 32.861C13.2952 32.948 13.7786 32.5412 13.7062 31.9828L12.7271 24.3436L14.9756 24.0346C15.3903 23.9776 15.7717 24.28 15.8267 24.7083L16.9414 33.402C17.0299 34.0928 16.2684 34.5516 15.7322 34.13V34.13Z" fill="#2FB86E"/>
<path d="M62.8045 33.8655L55.5355 22.9503C55.0897 22.2807 54.2223 22.0782 53.5424 22.4848L44.0695 28.1498C43.3177 28.5993 43.087 29.6127 43.5657 30.3632L56.9197 51.3014L63.1154 38.6457C63.8653 37.1138 63.746 35.2793 62.8045 33.8655V33.8655Z" fill="#34CB79"/>
<path d="M63.1156 38.6459L56.919 51.301L54.8406 48.041L59.4402 38.6457C60.1902 37.1138 60.0711 35.2797 59.1292 33.8658L52.1174 23.338L53.5431 22.4853C54.2226 22.078 55.0903 22.2809 55.5357 22.9508L62.8048 33.866C63.7466 35.2798 63.8656 37.1141 63.1156 38.6459V38.6459Z" fill="#2FB86E"/>
</svg>
